# xmcd CD database file
#
# Track frame offsets:
#	150
#	27179
#	57260
#	77279
#	92915
#	112103
#	137817
#	152417
#	179279
#	207438
#	232204
#	265141
#
# Disc length: 3646 seconds
#
# Revision: 0
# Processed by: cddbd v1.5.2PL0 Copyright (c) Steve Scherf et al.
# Submitted via: CDex 1.51
#
DISCID=9f0e3c0c
DTITLE=Grupo Sorpresa Trinitaria - Trinidad
DYEAR=2013
DGENRE=Salsa
TTITLE0=El Cafetal
TTITLE1=Vacilon
TTITLE2=El Ranchito
TTITLE3=Quizas Quizas
TTITLE4=El Zapatero
TTITLE5=La Negra Tomaso
TTITLE6=Che Commandante
TTITLE7=Yolanda
TTITLE8=Lagrimas Negras
TTITLE9=Paralitico
TTITLE10=Chan Chan
TTITLE11=Dulce Embeleso
EXTD=YEAR: 2013
EXTT0=
EXTT1=
EXTT2=
EXTT3=
EXTT4=
EXTT5=
EXTT6=
EXTT7=
EXTT8=
EXTT9=
EXTT10=
EXTT11=
PLAYORDER=
